<svg xmlns="http://www.w3.org/2000/svg" viewBox="0 0 385.98 249.07"><defs><style>.cls-1{fill:#5b8129;}.cls-2{fill:#fde688;}.cls-3{fill:#fbd32e;}.cls-4{fill:#77bd00;}.cls-5{fill:#bbde80;}.cls-6{fill:#99cd40;}.cls-7{fill:#3c6900;}.cls-8{fill:#e8e8e8;}</style></defs><title>dragon_</title><g id="Слой_2" data-name="Слой 2"><g id="objects"><path class="cls-1" d="M204.79,147.34s3.87-12.18.79-28.81S196.89,93,196.89,93s16.74-8.94,27.18-22.21,14.11-22.1,14.54-21.9-2.9,10.9.51,22.46,5,12.76,5,12.76-12.74,2.48-13.49,12.49a27.57,27.57,0,0,0,3.88,16.66s-10.39,0-17.58,13-5.5,22.75-5.5,22.75Z"/><path class="cls-1" d="M218.45,152.25s10.67-8.17,18-24.33,7.83-27.17,7.83-27.17,19.83,2.33,36.83-2.83,25.48-10.58,25.73-10.14-9.06,7.64-13.06,19.64-3.33,14-3.33,14-12.5-5.5-19.17,2.67a28.85,28.85,0,0,0-6.67,16.67s-9-8.17-23-1.33-18,15.5-18,15.5Z"/><path class="cls-2" d="M301.07,239.5c.83,1.09,6.51,8.34,7.75,4.44.6-1.86-2.16-5.52-3.75-6.25-1.77-.81-2.87,2-4.2,2.59a10.35,10.35,0,0,0-4.43,3.1c1.27,1.54,2.08,4.43,4,5.28a4,4,0,0,0,4-.25,2.58,2.58,0,0,0,.38-3.41c-.78-1.36-2.28-3.68-3.68-4.45"/><path class="cls-2" d="M303.95,237c1.39,1.33,7.44,6,8,1.38.35-2.89-4.81-3.68-6.79-4.08A4.17,4.17,0,0,1,303.95,237Z"/><path class="cls-2" d="M329.5,225.61c.73,2.68,4.46,4.77,7.12,4.75,2.92,0,3.51-2.17,2.18-4.43a7.1,7.1,0,0,0-3.4-3A12,12,0,0,1,329.5,225.61Z"/><path class="cls-2" d="M338.45,218c2.27,1,9.44,3.15,9.5-1.47.06-4.18-4.95-3.29-7.5-2.84-2.31.41-.65,2.55-1,4s-3.44,2.94-2.74,4.4c1.22,1.62,6.59,5.11,8.63,2.91s-3.26-6.26-5.13-6.56c-.5-.08-.7-.12-.9,0"/><path class="cls-2" d="M181.2,222.13a15.89,15.89,0,0,1,.41,2.49,11.34,11.34,0,0,0,1.25,3.64c.66,1.1,1.66,3.24,2.84,3.84,3.33,1.7,1.35-5.3,1-6.28-.45-1.19-.85-2.44-1.38-3.55-.72-.11-1.36.16-2.07,0S182.14,221.77,181.2,222.13Z"/><path class="cls-2" d="M186.7,222.25c-.13,2.19,1.13,5,2.38,6.76a3.36,3.36,0,0,0,3.31,1.74c4.59-.24.22-6-1-7.62-.59-.76-.53-1-1.62-1A9.23,9.23,0,0,1,186.7,222.25Z"/><path class="cls-2" d="M191.2,221.38c-.28,3,6.52,8.69,7.76,3.88.72-2.82-3.82-6.17-6-7.13C192.5,219.43,192.4,221.06,191.2,221.38Z"/><path class="cls-3" d="M125.7,32s1.25-9,9.75-18,17-11,19.25-12.25A18.65,18.65,0,0,1,159.45,0s-10,10-13,18.75a60.62,60.62,0,0,0-3,17Z"/><path class="cls-4" d="M268.2,229.75c2,2.29,3.25,4.65,5.75,6.58,1.88,1.45,3.73,3.05,5.69,4.37a35.49,35.49,0,0,0,10.15,4.42c5.3,1.49,10.42,1.36,14.39-2.86,1.34-1.42,3.82-4.56,2.77-6.77-.75-1.57-4.22-2.21-5.63-2.5-2.49-.52-4.74-.6-7.13-1.68-3.56-1.6-4.63-3.89-7.19-6.32-2.41-2.28-7.6-2.06-10.74-1.3A12.62,12.62,0,0,0,268.2,229.75Z"/><path class="cls-4" d="M175.7,186.5c-2.41,7.69-.48,16.3.76,24,.77,4.8,1.69,10.62,5.92,13.83,3.48,2.64,9.59,1.9,12.07-1.92,3.2-4.92,0-11.14-2.88-15.22-3-4.33-5.74-9-9-13.1C181.23,192.39,178,187.48,175.7,186.5Z"/><path class="cls-5" d="M282.78,183.25s-1.83,0-14.83-1.33c-15-1.54-36.33-9-36.33-9a130.87,130.87,0,0,0,1.67,17.67c1.67,11,8.33,20.67,8.33,20.67s-2,6.67-8.33,7.67-12.33-4.33-20.33-20.33-7-41-7-41a163,163,0,0,1-21.67-19.67c-10.67-11.67-29.33-42.67-39.33-51.33-9.75-8.45-25.82-1.7-35.89,7,9.72-2,23.47-2.21,32.89,8.68,16,18.5,15,76.5,46,107.5s81,30.5,113,12.5c2.64-1.49,5.22-3.07,7.73-4.73C294.69,207.68,282.78,183.25,282.78,183.25Z"/><path class="cls-5" d="M362.95,154.92c-15.33,18.67-57.33,27.67-57.33,27.67a37.72,37.72,0,0,0,12.33,18.67,54,54,0,0,0,6.29,4.48c19.56-16.81,32.9-36,36.21-43,1.4-2.95,3.28-7,5.2-11.2Q364.33,153.22,362.95,154.92Z"/><path class="cls-2" d="M226.57,216.13c.08,1.23,1.63,2.47,2.37,3.41a8.61,8.61,0,0,0,4.13,2.72c1.15.44,3.11,1.19,4,.07,1.5-1.89-1.77-6.46-3.37-7.43C232.28,216.68,228.71,215.56,226.57,216.13Z"/><path class="cls-2" d="M234.82,214.5c1,1.88,7.89,6.53,9.14,2.56.44-1.4-1.2-2.4-2.19-3.12s-2.57-2.22-3.66-2.22S235.47,213.62,234.82,214.5Z"/><path class="cls-2" d="M238.7,211c2.11,1.15,6.33,3.7,8.32.81a1.88,1.88,0,0,0-.76-2.92c-1.08-.53-2.2.06-3.28.39a15,15,0,0,1-3.76.49A3.21,3.21,0,0,1,238.7,211Z"/><path class="cls-6" d="M146.6,94.76a.69.69,0,0,0-1-.76c-2.71,1.36-4.87,3.23-7.58,4.53a27.15,27.15,0,0,1,2.17,1.88C142.87,99.26,146,97.52,146.6,94.76Z"/><path class="cls-6" d="M160.51,111.91c.4-.57-.36-1.16-.89-.89-3.53,1.79-6.52,3.93-10.12,5.41.27.75.54,1.52.81,2.3C154.54,117.31,158.31,115.11,160.51,111.91Z"/><path class="cls-6" d="M170.82,132.9c.25-.43-.18-1.13-.7-.92-4.63,1.9-8.35,4.89-13.37,6.18l-.83.19.59,2.27.86-.2C162,139.24,168.26,137.22,170.82,132.9Z"/><path class="cls-6" d="M181,152.83a.49.49,0,0,0-.66-.66c-2.39,1.09-4.36,3-6.7,4.24A42,42,0,0,1,164,160c-.68.17-1.36.32-2,.47q.33,1.11.68,2.22c1.13-.26,2.26-.54,3.37-.86C171,160.34,178.59,157.87,181,152.83Z"/><path class="cls-6" d="M198.84,168.58c.36-.57-.34-1.19-.89-.89-6.25,3.41-11.23,8.47-17.84,11.49A60,60,0,0,1,170,182.71q.49,1.08,1,2.16a56.7,56.7,0,0,0,8.85-3C186.43,179.07,194.88,174.78,198.84,168.58Z"/><path class="cls-6" d="M208.44,188.05a.51.51,0,0,0-.85-.5A62.59,62.59,0,0,1,190,201.66c-2.11,1.12-4.22,2.26-6.36,3.35q.82,1,1.67,1.93c2.41-1.19,4.79-2.46,7.15-3.73C198.59,199.89,206.57,195.29,208.44,188.05Z"/><path class="cls-6" d="M244.6,189.76a.68.68,0,0,0-1.24-.52,154.26,154.26,0,0,1-22.93,28.16c-2.93,2.8-6.14,5.74-9.57,8.42.76.36,1.52.69,2.28,1,3-2.28,5.78-4.72,8.4-7.1C230.15,211.92,241.5,201.37,244.6,189.76Z"/><path class="cls-6" d="M269.95,190.83a.67.67,0,0,0-1.31-.18c-1.23,4.39-1.6,9-2.68,13.42a86,86,0,0,1-5.2,15.12,80.82,80.82,0,0,1-6.63,12c-.76,1.12-1.54,2.3-2.36,3.47,1.11,0,2.22,0,3.32-.06a84.45,84.45,0,0,0,7.51-13.34C266.76,212.26,271.06,200.9,269.95,190.83Z"/><path class="cls-6" d="M292.79,204.69c.29-4.58.9-9.47-.17-14a.7.7,0,0,0-1.34,0c-2.22,9-.57,18.93-2.39,28.15-.66,3.34-1.53,6.64-2.52,9.91.81-.29,1.62-.58,2.42-.88a79.9,79.9,0,0,0,2.61-10.2A114.31,114.31,0,0,0,292.79,204.69Z"/><path class="cls-6" d="M324.27,181.74a.68.68,0,0,0-1.31,0c-1,4.12,1,8.31,1.15,12.48.13,3.89-.07,7.84-.15,11.74q1.1-.94,2.18-1.9C326.56,196.53,326.53,189.12,324.27,181.74Z"/><path class="cls-6" d="M343.82,173.21c-.54-.44-1.53,0-1.28.74,1,3.18,2.22,6.48,3.24,9.85.88-1.05,1.73-2.09,2.54-3.1A15.12,15.12,0,0,0,343.82,173.21Z"/><path class="cls-4" d="M167.61,67.92s7.33-20.67-16-33.67-36-2.67-42,10-12,37.33-26.67,42.33-19.67,0-26.33-3.33-19-10.33-25.67-.67,3.67,29,22.67,32.33,44.67-11.67,54.67-20.67,26.67-16.33,36.67-7.67,28.67,39.67,39.33,51.33a163,163,0,0,0,21.67,19.67s-1,25,7,41,14,21.33,20.33,20.33,8.33-7.67,8.33-7.67-6.67-9.67-8.33-20.67a130.87,130.87,0,0,1-1.67-17.67s21.35,7.46,36.33,9c13,1.33,14.83,1.33,14.83,1.33s12.83,26.33,27.5,35.33,19.33,9.67,25.67,5.67a11.07,11.07,0,0,0,5-11s-13-3.67-23-12a37.72,37.72,0,0,1-12.33-18.67s42-9,57.33-27.67,23.67-35.33,23-56.67-9.67-40.67-12-46a95.93,95.93,0,0,0-5.67-10.67l16,3.33s-35-30.58-38.67-28.67c-4.17,2.19,10.67,46,10.67,46l4.33-17.67s11,23.33,12.33,42.67-11.67,48.67-41.33,61-88.33,15.67-117.33.67-48.67-50.67-49.33-58.67S167.61,67.92,167.61,67.92Z"/><path class="cls-2" d="M65.2,121c2.89-.11,3-3.7,2.66-6.48a46.64,46.64,0,0,1-8.06.85C60.62,118.13,62.69,121.09,65.2,121Z"/><path class="cls-2" d="M75.87,118.37c1.3-.54,1.62-4.19,1.27-6.34-1.88.65-3.78,1.22-5.68,1.7a6.23,6.23,0,0,0,1.2,2.9C73.27,117.41,74.71,118.85,75.87,118.37Z"/><path class="cls-2" d="M86.73,113.87a5.3,5.3,0,0,0,1.07-3.9,14.39,14.39,0,0,0-.42-2.19c-2,1-4.13,1.92-6.26,2.77C82.23,113.15,84.57,116,86.73,113.87Z"/><path class="cls-2" d="M96,109c1.09-1.31.91-4,.17-6-1.59,1-3.26,1.92-5,2.85C92.37,108.26,94.39,110.94,96,109Z"/><path class="cls-2" d="M105.64,102.44c.89-1.6,0-3.55-.88-5.28-1.47,1.13-3.1,2.3-4.88,3.49C101.48,103,104,105.43,105.64,102.44Z"/><path class="cls-2" d="M113.54,95.38a6.67,6.67,0,0,0-1-4.55,50.81,50.81,0,0,0-4.26,3.42l-.33.29C109.72,96.81,112.82,98.56,113.54,95.38Z"/><path class="cls-3" d="M152.7,38.25s-3.75,4.75,1,9.75,9,5.25,9,5.25a44,44,0,0,1,15.75-16.5c11.25-7,18.75-8.25,18.75-8.25s-10.25-3-25.75.75S152.7,38.25,152.7,38.25Z"/><path class="cls-7" d="M117.11,65.68c1.19-2.92,6.36-6.06,9.17-3.48,2.13,2-.15,5.51,1.94,7.11a.91.91,0,0,0,.95,0c1.61-1,1.08-4.23.72-5.87a5.91,5.91,0,0,0-4.29-4.58c-3.83-1-10.45,2.35-9.83,6.82.11.76,1.11.54,1.33,0Z"/><path class="cls-7" d="M110.29,63.35a8.36,8.36,0,0,0,1.4-9.47c-1.14-2.18-5-5.09-6.92-2.17a1.08,1.08,0,0,0,.64,1.57c.79.26,1.6,0,2.33.41a4,4,0,0,1,1.72,2.58c.53,2.24-.71,3.84-1.18,5.91a1.2,1.2,0,0,0,2,1.16Z"/><path class="cls-7" d="M55.28,93.92a6.23,6.23,0,0,0-8.3.67A6.84,6.84,0,0,0,45.74,101c2.1,5.61,8.59,4,10.54-.71C56.88,98.8,57.95,95.92,55.28,93.92Z"/><path class="cls-7" d="M30.95,82.58a13.21,13.21,0,0,0-1.78,9.83C33.6,92,39,85.77,34.79,81.57a5.06,5.06,0,0,0-1.89-1.23A12.5,12.5,0,0,0,30.95,82.58Z"/><path class="cls-8" d="M26.84,80.41c.18-1.77-1.65-3.84-1.92-5.62-.38-2.48.95-3.64,2.12-5.62C29.91,64.33,35.79,57,32.24,51c-1.66-2.82-4.17-3.21-7.23-3.38,1.47-6.36-4.57-11.52-10-13.46-7.48-2.69-16.35,4-14.9,12.12.6,3.37,3.57,7.91,6.94,9.06-3.2-.76-4.71,5.56-4.43,7.77.57,4.42,4,5.53,7.69,6.89-1.34,1.33-3,2-3.81,3.89a6.72,6.72,0,0,0-.18,5.87C8.46,83.86,13.14,84.56,17,83,19.91,81.89,23.87,79.19,26.84,80.41Z"/></g></g></svg>