<svg xmlns="http://www.w3.org/2000/svg" viewBox="0 0 127.96 372.01"><defs><style>.cls-1{isolation:isolate;}.cls-2{fill:#fedac0;}.cls-3{fill:#a4b0b0;}.cls-4{fill:#7e5141;}.cls-5{fill:#fce06d;}.cls-6{fill:#8ae0e1;}.cls-7{mix-blend-mode:multiply;}.cls-8{fill:#fdc59c;}.cls-9{fill:#8d6557;}.cls-10{fill:#996c41;}.cls-11{fill:#378bbf;}.cls-12{fill:#fbd32e;}.cls-13{fill:#fc9b2e;}.cls-14{fill:#fce277;}</style></defs><title>knight_</title><g class="cls-1"><g id="Слой_2" data-name="Слой 2"><g id="objects"><path class="cls-2" d="M12.63,244.17c.38,2.06-.12,4.29.12,6.4a49.42,49.42,0,0,0,.52,5.18c.34,1.52,2.11,6.61,3.61,5.7,1.08-.66-.71-4.8-.66-6.88.52,1.65,2.38,10.24,4.38,9.75,1.35-.33-.75-9.23-.94-10.93.71,2.17,1.92,8.41,3.06,9.89.73,1,2.2,1.36,2.69-.09.28-.85-.62-3-1-4.8a79.06,79.06,0,0,1-.19-9.75,35.91,35.91,0,0,1,2,5.32c.4,1.25,1.24,2.9,1.94.89.85-2.44.65-3.5.28-6A54.55,54.55,0,0,0,27,241.45c-2.86-.58-6.16.28-9,.78C16.86,242.44,12.7,242.88,12.63,244.17Z"/><path class="cls-2" d="M114.78,246.17c-.38,2.06.13,4.29-.12,6.4a49.47,49.47,0,0,1-.52,5.18c-.34,1.52-2.11,6.61-3.61,5.7-1.08-.66.71-4.8.66-6.88-.52,1.65-2.38,10.24-4.38,9.75-1.35-.33.75-9.23.94-10.93-.71,2.17-1.92,8.41-3.06,9.89-.73,1-2.2,1.36-2.68-.09-.28-.85.62-3,1-4.8a79.05,79.05,0,0,0,.19-9.75,35.92,35.92,0,0,0-2,5.32c-.4,1.25-1.24,2.9-1.94.89-.85-2.44-.65-3.5-.28-6a54.53,54.53,0,0,1,1.43-7.43c2.86-.58,6.16.28,9,.78C110.55,244.44,114.72,244.88,114.78,246.17Z"/><path class="cls-3" d="M35.23,219s-.83,18-.17,33.83,1.67,45,1.83,49.33,17.92,2.92,17.92,2.92,1.83-17.33,2.67-31.83,1.33-28.58,1.33-28.58l8.67.33s4.92,45.5,6.75,53.67l1.83,8.17,16.33-1.67s2-18,2.17-29.5.5-28.17.17-36.17-1.67-18.17-1.67-18.17Z"/><path class="cls-2" d="M14,65.25s-4.25,14.5-.5,29,7,25,20.5,33.5,20,7.5,22.75,13.5.75,10,.75,10S62,158,68.23,157s9-9,9-9-7.5-4-3-9,16.25-3.5,26.25-12.5,11.25-15.25,11.25-15.25,3.5-7.5,4.5-21S116.48,62,107.73,55s-32-1-42.75-4.5-36.5-11.25-39.75-7.75S14,65.25,14,65.25Z"/><path class="cls-2" d="M16.48,92.5c-3-3.35-10.46-6.79-14.56-3.82A5,5,0,0,0,1.29,96c2,2.38,5,2.6,7.89,2.75a22.37,22.37,0,0,0,8.76-1.29C18.1,95.7,18,93.72,16.48,92.5Z"/><path class="cls-2" d="M108.23,104c5-2.5,15.85-3.82,19,2.49,3.38,6.75-5.91,8.41-10.36,7.21-3.58-1-6.46-3.4-9.85-4.74A12.54,12.54,0,0,1,108.23,104Z"/><path class="cls-4" d="M13.73,90.5s-.5-16.75,5.75-28.25S28.23,49,33.73,52.5s17.75,15.25,41,12.75S98,56.5,104.73,60s2.65,14.87,3.25,25.5a54.7,54.7,0,0,0,4,18.37s4.49-1.86,6.75-1.87a9.24,9.24,0,0,1,2.34.26s7.16-17.51,6.66-33.76S114.23,27,82.73,23s-48,.25-62.25,16.5S7.29,71.78,7.86,77.5a54.47,54.47,0,0,0,2.21,10.92Z"/><path class="cls-5" d="M44.48,23c.25,5,0,10.25,0,10.25s10.75,6,22.75,6,18.75-3,18.75-3,.5-4.5,1.25-12.25,4.5-17,4.5-17S81.23,15.5,78,19.5a32.31,32.31,0,0,0-4.25,6.25L66.48,4.5s-3.75,7.25-6.25,11.75S56,24.5,56,24.5,48.48,10.75,46.23,8a13.72,13.72,0,0,0-3.75-3.5S44.23,18,44.48,23Z"/><path class="cls-6" d="M43.9,6.42c1.3-.65,2.45-2.69,2-4A3.62,3.62,0,0,0,42.23.17a5.21,5.21,0,0,0-3.85,2.48c-.65,1.16-.79,2.85.5,3.62A4.7,4.7,0,0,0,43.9,6.42Z"/><path class="cls-6" d="M66.93,6.67c1.45,0,3.42-1.22,3.65-2.58A3.62,3.62,0,0,0,68.4.37a5.21,5.21,0,0,0-4.57.38c-1.12.72-2,2.14-1.26,3.43A4.7,4.7,0,0,0,66.93,6.67Z"/><path class="cls-6" d="M90.8,10.51c1.39.41,3.62-.29,4.19-1.55a3.62,3.62,0,0,0-1.14-4.15A5.21,5.21,0,0,0,89.34,4c-1.27.41-2.53,1.54-2.11,3A4.7,4.7,0,0,0,90.8,10.51Z"/><g class="cls-7"><path class="cls-8" d="M62.76,82.75c0,3.39-.4,6.68-.55,10.06A42.3,42.3,0,0,1,62,97.73c-.38,2.29-.21,1.82-2.18,2-3,.22-6.22-1.71-8.55,1.14-4.94,6,4.19,11.57,9.53,9.38a.8.8,0,0,0-.42-1.54c-2.05.49-4.44.63-6.27-.67-3.79-2.7-1.18-6.91,2.58-6.88,2,0,3.78.64,5.77.19a.77.77,0,0,0,.54-.54c.74-2.88.58-5.69.76-8.63.2-3.22.88-6.35.1-9.54a.56.56,0,0,0-1.09.15Z"/></g><path class="cls-9" d="M79.9,74.25c-1.67,2.31,4.64,5.09,5.42,5.42a65.55,65.55,0,0,0,8.83,2.83c1,.26,3,1.09,4.09.59,1.67-.8.31-2.69-.63-3.68-2.31-2.44-12-5.84-13.88-6C81.51,73.16,80.69,73.15,79.9,74.25Z"/><path class="cls-9" d="M43.12,71.49c1.16,2.6-5.57,4-6.41,4.21a65.56,65.56,0,0,1-9.22,1c-1,.06-3.2.45-4.12-.25-1.47-1.13.24-2.69,1.36-3.48,2.75-1.92,13-3.29,14.81-3.1C41.77,70.08,42.57,70.25,43.12,71.49Z"/><path class="cls-10" d="M27.07,96.64c1.38-3.31,2.87-6.74,7.12-6.29,3.88.41,5.9,3.12,6.06,6.82.06,1.4,2.37,1.89,2.59.35a8.4,8.4,0,0,0-7.66-9.46c-5.34-.61-8.42,3.43-9.11,8.31a.52.52,0,0,0,1,.28Z"/><path class="cls-10" d="M80.42,99.4c1-3.41,3.07-6.21,7-5.06a7,7,0,0,1,3.75,2.74c1.08,1.59.87,3.31,1.49,5a.94.94,0,0,0,1.79,0c1.82-4.34-3.22-9.28-7.13-10a7.3,7.3,0,0,0-8.65,7.09.89.89,0,0,0,1.73.23Z"/><path class="cls-10" d="M47.74,118.33c2.87,3.21,9.09,4.11,13.12,4.42,2.42.18,10.15.32,10.06-3.57a.7.7,0,0,0-.87-.66c-1.41.2-2.45,1.34-3.87,1.71a18.56,18.56,0,0,1-6.33.25,32,32,0,0,1-11.26-3.24.7.7,0,0,0-.84,1.09Z"/><path class="cls-11" d="M38.23,149.34l19.56-3.4A8.9,8.9,0,0,0,66,149.57a14.56,14.56,0,0,0,8.42-4.06l25.5,5.17,11.67,2.5s4.17,30.33,5.33,44.17a307.68,307.68,0,0,1,.83,35.83,150.43,150.43,0,0,1-1.83,17.17l-16.5-4s2.33-23.5,1.67-37.5-6.33-38.5-6.33-38.5l.17,54.5s-12.17,6.67-31.67,5.67-29.83-9-29.83-9,1.17-24.83,1.5-34,.67-17.67.67-17.67-5,21.33-6.83,39,0,36.83,0,36.83L11.9,248s-2.67-15-2-39.33,9.83-56.83,9.83-56.83Z"/><path class="cls-12" d="M34.48,186.09s14.06,5.49,27.75,5.92c16.17.5,32.83-3.75,32.83-3.75l.25,11.17s-12.25,5.42-33.42,3.92c-18.86-1.34-28-5.83-28-5.83Z"/><path class="cls-13" d="M41.23,148.5s15,28.33,27.17,45.5,28.5,32.5,28.5,32.5a49.67,49.67,0,0,0,1.67-9.83,46.17,46.17,0,0,0-.83-10.83s-13-13.33-22.67-25.17a151.42,151.42,0,0,1-17.5-26,76.94,76.94,0,0,1-3.67-8.83Z"/><path class="cls-12" d="M17.07,150.17c0,4.08-1,8.47.25,12.42.44,1.38,1.25,3.84,3.09,2.83,1-.56,1.43-2.44,1.67-3.42.45-1.82.32-3.87.83-5.62-.15,2,1.1,5.08,3.46,5.18,2.64.11,3.51-4.45,3.91-6.38.65,2.2,2.07,4.26,4.63,4.15,2.86-.12,3.14-3.48,3.83-6,1.39,2.26,3.85,4.71,5.63,1.44.81-1.5,1.33-4.14.81-5.5s.32-1.15-1.29-1.4a60.87,60.87,0,0,0-18.15.26c-1.85.27-3.42.91-5.22,1.29A12.35,12.35,0,0,0,17.07,150.17Z"/><path class="cls-14" d="M51.57,147.5s-18.67-4.83-28.83-2.33-8,6.5-5.33,8.17,11.33,1,20.83-1.5S51.57,147.5,51.57,147.5Z"/><path class="cls-12" d="M115.68,150.84c0,4.08,1,8.48-.25,12.42-.44,1.38-1.25,3.84-3.09,2.83-1-.56-1.43-2.44-1.67-3.42-.45-1.82-.32-3.87-.83-5.62.15,2-1.1,5.08-3.46,5.18-2.64.11-3.51-4.45-3.91-6.38-.65,2.2-2.07,4.26-4.63,4.15-2.86-.12-3.14-3.48-3.83-6-1.39,2.26-3.85,4.71-5.62,1.44-.81-1.5-1.33-4.14-.81-5.5s-.32-1.15,1.29-1.4a60.87,60.87,0,0,1,18.15.26c1.85.27,3.42.91,5.22,1.29A12.34,12.34,0,0,1,115.68,150.84Z"/><path class="cls-14" d="M81.18,148.17s18.67-4.83,28.83-2.33,8,6.5,5.33,8.17-11.33,1-20.83-1.5S81.18,148.17,81.18,148.17Z"/><path class="cls-11" d="M35.4,295.5A28,28,0,0,0,47.23,298a59,59,0,0,0,8.75-.5s-2,22.5-2.5,34S53,353.25,50,356.25s-18.75,3.5-25.75,3.25-9.75-4.75-6.25-9,15.08-7.33,15.08-7.33,1.33-14.67,2-26.33C35.61,307.34,35.4,295.5,35.4,295.5Z"/><path class="cls-11" d="M72.48,295.75a27.62,27.62,0,0,0,11.75.75A51.26,51.26,0,0,0,94.48,294s3.75,44,4,48.5.5,6.25.5,6.25,9.25,4.5,13,10.75,3.75,12-11,12.5-17.75-16.5-19-22.25S72.48,295.75,72.48,295.75Z"/></g></g></g></svg>