<svg xmlns="http://www.w3.org/2000/svg" viewBox="0 0 205 343.61"><defs><style>.cls-1{isolation:isolate;}.cls-2{fill:#ff8aa9;}.cls-3{fill:#ffc5d4;}.cls-4{fill:#e3567c;}.cls-5{fill:#fdceab;}.cls-6{fill:#fc9b2e;}.cls-7{fill:#ffadc3;}.cls-8{fill:#fce06d;}.cls-9{fill:#fcaa4d;}.cls-10{mix-blend-mode:multiply;}.cls-11{fill:#fdc59c;}.cls-12{fill:#996c41;}.cls-13{fill:#e87392;}.cls-14{fill:#fbd32e;}.cls-15{fill:#fff;}</style></defs><title>princess_</title><g class="cls-1"><g id="Слой_2" data-name="Слой 2"><g id="objects"><path class="cls-2" d="M102.33,193.61c-1.33,1.33-11.67,29-32,47.33a235.87,235.87,0,0,1-39,28.67,69.71,69.71,0,0,1-15,25.33C5,307.27,0,313.94,0,313.94s43.33,33.33,112.33,29.33S205,310.94,205,310.94s-23-26.67-28.67-41.67-12.33-28-12.33-28-47-46.33-51.67-47.67A22.26,22.26,0,0,0,102.33,193.61Z"/><path class="cls-3" d="M194.16,297.53a6.63,6.63,0,0,1-4.83,2.41c-14-1-18,9-28,14-9,5-17-8-26-5-8,3-15,9-24,11-10,3-17.5-13-28.5-8.33-9.5,4-15.5,9.33-23.5,6.33-5-3-8.9-10-14-10-19.83-.17-25.43,0-33-8.57C3.81,308.86,0,313.94,0,313.94s43.33,33.33,112.33,29.33S205,310.94,205,310.94,200,305.19,194.16,297.53Z"/><path class="cls-4" d="M91.08,186.94s-11-11.5-29.75-.5-18.25,41.5-20.75,55a161.91,161.91,0,0,1-8.25,27.5s25.75,1,47.5-27.75,24.5-44.75,24.5-44.75Z"/><path class="cls-4" d="M111.08,192.19a63.62,63.62,0,0,0,14,34.75c20,24.13,51.13,41.75,51.13,41.75s-4.5-10.75-8-28.25c-3.11-15.54-4.62-31.75-14.12-44.25s-15.5-15.25-24.25-13.5S111.08,192.19,111.08,192.19Z"/><path class="cls-5" d="M139.56,148.68s5,13.43,16,30.54,10.86,17.64,16.3,18.63,14.53-2.58,14.81-.6-7.64,4.88-7.64,4.88,12.13,0,11.63,1.87-8.17,2.94-10.25,2.48a31.4,31.4,0,0,0-3.11-.57s10.29,4.84,8,6.43-13.58-3.11-13.58-3.11.57,7.5-2.72,7.46-.71-8.49-4.17-11.53-14.75-18.35-19.24-25S132,153.81,132,153.81Z"/><path class="cls-6" d="M93,9.61s-32.67,8-38,37.67,4.36,50.48,1.33,68.67C53,135.94,42,144.61,42,144.61S73.24,158,111.67,155.27c42-3,56.67-19.67,56.67-19.67s-13.67-6.33-13-28,10.33-44.33-2.33-71S112.33,4.27,93,9.61Z"/><path class="cls-4" d="M123.33,131.61s2.17-7,11.33-7.17,14.83,9.17,14.17,14.67-4.67,11-5.17,12.33a2.57,2.57,0,0,1-1.46,1.63l-11.12,5.5s-2.25-2.46-3.42-8S123.33,131.61,123.33,131.61Z"/><path class="cls-7" d="M144.46,150.44a11.16,11.16,0,0,0-1.12,3.5,13.45,13.45,0,0,1-.12,2,49.34,49.34,0,0,0-5.5,2.75,11.29,11.29,0,0,0-3.12,2.38l-5.5-4.75a77.35,77.35,0,0,1,8.38-3.75A60.12,60.12,0,0,1,144.46,150.44Z"/><path class="cls-8" d="M52.08,29.19l16.25,14.5s13-12.5,36.25-14.25,38.75,6.75,38.75,6.75l2-21.75s-6.5,8.5-13.25,7.5-7.38-14.75-7.38-14.75-3.5,13.13-12.25,12.63S98.67,5.36,98.67,5.36s1.5,14.92-9.08,18.08c-6.86,2.05-14.33-11.17-14.33-11.17s4.33,15.42-3.17,19.17S52.08,29.19,52.08,29.19Z"/><path class="cls-5" d="M141.82,56.72C129.25,49.58,124,54.38,99.3,54.85,89.55,55,83.9,53,80.63,50.48a182.67,182.67,0,0,1-7.54,22.46c-4.5,10.5-8.5,13.75-8.5,13.75a31.81,31.81,0,0,0,12.5,23.5c12.5,9.5,20,8.75,22.5,13s1.25,4,1.25,4l-14.5,3.75s14.5,21.75,24.25,19.5,10.75-19.25,10.75-19.25l-7.75-2.75s-2-3.75,6-7,20.75-6,29-20.75a56.14,56.14,0,0,0,7.18-20.83c-.08-1.48-.23-3.7-.54-5.76C154.69,70.61,154.38,63.86,141.82,56.72Z"/><path class="cls-6" d="M157.58,57.83c-2.07-8-10.16-18.41-25.44-21s-56,4.75-56,4.75a10.48,10.48,0,0,0,4.44,8.93C83.9,53,89.55,55,99.3,54.85c24.75-.47,30-5.27,42.52,1.87s12.87,13.89,13.4,17.38c.31,2.06.47,4.28.54,5.76.05,1,.07,1.7.07,1.7S159.65,65.82,157.58,57.83Z"/><path class="cls-9" d="M127,67.32c2.91-1.59,4.83-4.13,8.33-4.64,4.21-.62,6.11,2,9.48,3.67.62.3,1.56-.38,1.06-1.06-5.13-6.91-14.57-4.72-19.58,1.1a.59.59,0,0,0,.71.92Z"/><path class="cls-9" d="M93,70.58c-5-5.29-17.71-5.47-21.84,1-.18.29.05.8.43.75,3-.38,5.27-2.42,8.23-3,4.65-.88,8.32.72,12.5,2.38.69.27,1.12-.7.68-1.17Z"/><path class="cls-5" d="M152,81.32s8.13-6.62,13-2.75.88,10.38-4.25,11-11.37-1.87-11.37-1.87Z"/><path class="cls-5" d="M66.21,87.32c-.5,0-6.12-3.25-12.5.38s-3.25,10.88,2,11.5S70,96.69,70,96.69Z"/><g class="cls-10"><path class="cls-11" d="M109.91,69.66c-1.29,5.89-1.23,13.56.65,19.32a.83.83,0,0,0,.79.6,34.93,34.93,0,0,1,5.23-.59c2,.09,6.58.83,2.28,5-1.32,1.28-4.19.91-5.41-.15-.72-.62-1.91.17-1.37,1.06,3,4.89,13.65-.18,9.88-5.84-2-3-5.48-1.8-8.42-1.52-1.44.13-1.14.45-1.94-.37-1.06-1.1-.6-5.93-.61-7.5,0-3.33.37-6.71-.25-10a.44.44,0,0,0-.84,0Z"/></g><path class="cls-12" d="M128.18,84.11c.84-2.83,1.75-6.74,5.15-7.51a6.07,6.07,0,0,1,5.26,1.64c1.41,1.35,1.4,3.2,2.16,4.87a.82.82,0,0,0,1.49-.19c.93-4.92-3.87-8.77-8.52-8.11-3.68.53-7.77,5.46-6.73,9.3a.62.62,0,0,0,1.19,0Z"/><path class="cls-12" d="M142.25,81.93A5.93,5.93,0,0,0,145,79.64a3.48,3.48,0,0,0,.86-3.3.4.4,0,0,0-.65-.17,13.71,13.71,0,0,0-1.76,2.57,12.36,12.36,0,0,0-2,2.42c-.19.46.36.89.78.78Z"/><path class="cls-12" d="M140.08,78.09A3.66,3.66,0,0,0,143,75.85c.52-.91,1.47-2.62.73-3.64a.47.47,0,0,0-.63-.17c-.83.47-1.13,1.71-1.53,2.5a8.67,8.67,0,0,1-1.86,2.66.53.53,0,0,0,.37.89Z"/><path class="cls-12" d="M136.77,74.9a5.35,5.35,0,0,0,.56-3.24c-.08-.83-.34-2.55-1.51-2.47a.65.65,0,0,0-.56.32c-.34.75.22,1.5.36,2.26a5.85,5.85,0,0,1-.06,2.63.66.66,0,0,0,1.2.51Z"/><path class="cls-12" d="M93.19,85.93c-.63-4.25-4.42-7.3-8.72-6.21s-8,5.88-7,10.38a.62.62,0,0,0,1.11.15c.74-1.12.76-2.32,1.18-3.56A7.74,7.74,0,0,1,84,82.09c4.22-1.87,6.49.77,8.25,4.23.28.55,1,.13.91-.39Z"/><path class="cls-12" d="M78.33,86.85a5.13,5.13,0,0,1-2.49-1.25c-.62-.5-1.34-1.31-2.2-1.22a.74.74,0,0,0-.72.72c0,1.15,1.33,2.05,2.2,2.59a4,4,0,0,0,3.41.57.72.72,0,0,0-.19-1.41Z"/><path class="cls-12" d="M79.86,83.76a6.14,6.14,0,0,1-2-2.23c-.47-.83-.7-1.94-1.7-2.26a.79.79,0,0,0-.89.36c-.55,1.11.38,2.5,1,3.41a4.9,4.9,0,0,0,3,2.16.79.79,0,0,0,.61-1.44Z"/><path class="cls-12" d="M83,80.31a24.12,24.12,0,0,1-1.62-3.36c-.21-.67-.47-2.15-1.52-1.86s-.8,2.06-.46,2.85a17.82,17.82,0,0,0,2.29,3.14A.76.76,0,0,0,83,80.31Z"/><path class="cls-5" d="M69.58,151.69s-3,14-11.5,32.5-8.25,19-13.5,20.75-14.75-.5-14.75,1.5,8.25,3.75,8.25,3.75-12,1.75-11.25,3.5,8.5,1.75,10.5,1a31.38,31.38,0,0,1,3-1s-9.5,6.25-7,7.5,13-5,13-5,.5,7.5,3.75,7-.5-8.5,2.5-12,12-20.25,15.5-27.5,9.75-28,9.75-28Z"/><path class="cls-13" d="M100.93,100.1c-.37,1.09-.78,6.34,4,8.66a6.32,6.32,0,0,0,6.69-.34,17.17,17.17,0,0,0,3.22-3.09c-2.41-.35-4.74.32-7.05-.89C105.74,103.37,103.15,100.9,100.93,100.1Z"/><path class="cls-4" d="M100.83,100.19c.69-1.65,3.39-1.26,4.55-.42a8.6,8.6,0,0,1,2.85,3.91,5.43,5.43,0,0,1,4.28-1c1.53.33,1.95,1.33,2.39,2.64C111.2,107.63,104.23,104.17,100.83,100.19Z"/><path class="cls-2" d="M91.5,128.94a45.88,45.88,0,0,0-10,2.67c-4.67,1.83-5.5,4-5.5,4s5.5,24.17,8.17,33.33a123.3,123.3,0,0,1,3.5,14.83s19,7.17,24.83,7,15.17-6.83,15.17-6.83,5-11.33,4-23.17-2.83-19.17-5.67-23.5-4.67-5.83-5.17-5.83a6,6,0,0,1-1.83-1s6,10.67-1.5,16.33c-2.15,1.62-3.87-.8-5.83-.33-4.91,1.18-9.48,2.66-12.33.17C95.33,143.11,91.5,128.94,91.5,128.94Z"/><path class="cls-14" d="M86.83,180.44a37.05,37.05,0,0,1,.5,7.25c-.25,2.75-.5,4.25-.5,4.25s12.25,12.75,25.75,12S130,184,130,184v-6.25a33.12,33.12,0,0,1-18.92,8.67C99.33,187.69,86.83,180.44,86.83,180.44Z"/><path class="cls-4" d="M54.36,30.23c1.53-2.24,1.53-4.58.22-5.65-1.91-1.55-5.09.29-6,2.2-1.43,3,.17,6.41,3.64,5.34A4.62,4.62,0,0,0,54.36,30.23Z"/><path class="cls-4" d="M75.73,13.82c2.45-1.18,3.61-3.21,3-4.78-.88-2.3-4.55-2.28-6.31-1.09-2.72,1.85-3.05,5.64.49,6.44A4.62,4.62,0,0,0,75.73,13.82Z"/><path class="cls-4" d="M98.7,6.77c2.71-.18,4.55-1.64,4.57-3.32,0-2.46-3.38-3.82-5.45-3.36-3.21.7-4.93,4.1-1.95,6.16A4.62,4.62,0,0,0,98.7,6.77Z"/><path class="cls-4" d="M124,8.85c2.65.6,4.83-.26,5.33-1.87.74-2.34-2.14-4.62-4.26-4.78-3.28-.25-5.9,2.51-3.63,5.35A4.62,4.62,0,0,0,124,8.85Z"/><path class="cls-4" d="M143.29,16.79c2.45,1.17,4.76.82,5.62-.63,1.25-2.12-1.06-5-3.08-5.61-3.14-1-6.31,1.13-4.73,4.4A4.62,4.62,0,0,0,143.29,16.79Z"/><path class="cls-4" d="M87.58,135.19s-8.5-14.75-18.87-10.25-6.5,16-5.25,18.88,2.87,6.25,2.87,6.25L81,156.63s5.94-2.44,7.69-7.81S89.33,139.07,87.58,135.19Z"/><path class="cls-15" d="M93.21,128.82s2,8,7.75,12.38,10.75,5.88,14.38,3.5,4.25-7.87,3.88-10.75-.5-4.06-.5-4.06l2.94.94s8.19,8.13,6.31,14.5-5.5,7.75-9.5,6.38a16.12,16.12,0,0,1-6.75-5.12s-2.87,8.63-9.62,7.75-11.5-6.12-13.75-12.75a16.92,16.92,0,0,1,.25-11.87Z"/><path class="cls-7" d="M65.71,149.07c.5,1.65,2.29,5.58,1.69,7.25,1.84.85,7.93,3.78,9.5,4.31a17.68,17.68,0,0,1,5.17-4.34c-.48-1.21-7.79-4.45-9.92-5.29C70.45,150.34,67.52,149,65.71,149.07Z"/><path class="cls-15" d="M66.83,95.77c-4.13-1.31-7.67,3.62-4.79,7a4.37,4.37,0,0,0,7.62-2.33A4.78,4.78,0,0,0,66.83,95.77Z"/><path class="cls-15" d="M155.67,85.77c-4.13-1.31-7.67,3.62-4.79,7a4.37,4.37,0,0,0,7.62-2.33A4.78,4.78,0,0,0,155.67,85.77Z"/></g></g></g></svg>